<svg width="15" height="16" viewBox="0 0 15 16" fill="none" xmlns="http://www.w3.org/2000/svg">
<path d="M10.5664 10.6175L14.0039 14.055L12.5976 15.4807L9.00389 11.8675C8.12514 12.3557 7.10951 12.6294 6.05451 12.6294C2.71451 12.6294 -0.000488281 9.91441 -0.000488281 6.57441C-0.000488281 3.23441 2.71451 0.519409 6.05451 0.519409C9.39451 0.519409 12.1289 3.23441 12.1289 6.57441C12.1289 8.13691 11.5233 9.56253 10.5664 10.6175ZM2.01201 6.57441C2.01201 8.82066 3.80889 10.6175 6.05514 10.6175C8.30139 10.6175 10.0983 8.82066 10.0983 6.57441C10.0983 4.32816 8.30139 2.53128 6.05514 2.53128C3.80889 2.53128 2.01201 4.32816 2.01201 6.57441Z" fill="#B6B6B6"/>
</svg>
